<svg xmlns="http://www.w3.org/2000/svg" style="display:none">
  <defs>
    <g id="i-base" fill="none" stroke="currentColor" stroke-width="1.75" stroke-linecap="round" stroke-linejoin="round"></g>
  </defs>

  <!-- UI -->
  <symbol id="icon-search" viewBox="0 0 24 24" fill="none" stroke="currentColor" stroke-width="1.75" stroke-linecap="round" stroke-linejoin="round">
    <circle cx="11" cy="11" r="7"/>
    <path d="M20 20l-3.6-3.6"/>
  </symbol>

  <symbol id="icon-user" viewBox="0 0 24 24" fill="none" stroke="currentColor" stroke-width="1.75" stroke-linecap="round" stroke-linejoin="round">
    <circle cx="12" cy="8" r="4"/>
    <path d="M4 20.5c0-4.1 3.6-7.5 8-7.5s8 3.4 8 7.5"/>
  </symbol>

  <symbol id="icon-cart" viewBox="0 0 24 24" fill="none" stroke="currentColor" stroke-width="1.75" stroke-linecap="round" stroke-linejoin="round">
    <path d="M3 4h2l2.2 11.2a2 2 0 0 0 2 1.6h7.7a2 2 0 0 0 1.97-1.66L20 8H6.2"/>
    <circle cx="9.5" cy="20.5" r="1.2" fill="currentColor" stroke="none"/>
    <circle cx="17.5" cy="20.5" r="1.2" fill="currentColor" stroke="none"/>
  </symbol>

  <symbol id="icon-heart" viewBox="0 0 24 24" fill="none" stroke="currentColor" stroke-width="1.75" stroke-linecap="round" stroke-linejoin="round">
    <path d="M12 20.2s-7.3-4.4-9.6-9.1A5.4 5.4 0 0 1 12 5.6a5.4 5.4 0 0 1 9.6 5.5c-2.3 4.7-9.6 9.1-9.6 9.1z"/>
  </symbol>

  <symbol id="icon-star" viewBox="0 0 24 24" fill="currentColor" stroke="currentColor" stroke-width="1.25" stroke-linejoin="round">
    <path d="M12 3.2l2.6 5.4 5.9.8-4.3 4.2 1 5.9-5.2-2.8-5.2 2.8 1-5.9-4.3-4.2 5.9-.8z"/>
  </symbol>

  <symbol id="icon-menu" viewBox="0 0 24 24" fill="none" stroke="currentColor" stroke-width="1.75" stroke-linecap="round" stroke-linejoin="round">
    <path d="M3 6h18M3 12h18M3 18h18"/>
  </symbol>

  <symbol id="icon-close" viewBox="0 0 24 24" fill="none" stroke="currentColor" stroke-width="1.75" stroke-linecap="round" stroke-linejoin="round">
    <path d="M5 5l14 14M19 5L5 19"/>
  </symbol>

  <symbol id="icon-arrow-right" viewBox="0 0 24 24" fill="none" stroke="currentColor" stroke-width="1.75" stroke-linecap="round" stroke-linejoin="round">
    <path d="M4 12h16M13 5l7 7-7 7"/>
  </symbol>

  <symbol id="icon-chevron-down" viewBox="0 0 24 24" fill="none" stroke="currentColor" stroke-width="1.75" stroke-linecap="round" stroke-linejoin="round">
    <path d="M6 9l6 6 6-6"/>
  </symbol>

  <symbol id="icon-check" viewBox="0 0 24 24" fill="none" stroke="currentColor" stroke-width="1.75" stroke-linecap="round" stroke-linejoin="round">
    <path d="M4.5 12.5l5 5L19.5 7"/>
  </symbol>

  <symbol id="icon-mail" viewBox="0 0 24 24" fill="none" stroke="currentColor" stroke-width="1.75" stroke-linecap="round" stroke-linejoin="round">
    <rect x="3" y="5" width="18" height="14" rx="2.5"/>
    <path d="M3.5 6.5l8.5 6 8.5-6"/>
  </symbol>

  <symbol id="icon-plus" viewBox="0 0 24 24" fill="none" stroke="currentColor" stroke-width="1.75" stroke-linecap="round" stroke-linejoin="round">
    <path d="M12 5v14M5 12h14"/>
  </symbol>

  <symbol id="icon-minus" viewBox="0 0 24 24" fill="none" stroke="currentColor" stroke-width="1.75" stroke-linecap="round" stroke-linejoin="round">
    <path d="M5 12h14"/>
  </symbol>

  <symbol id="icon-trash" viewBox="0 0 24 24" fill="none" stroke="currentColor" stroke-width="1.75" stroke-linecap="round" stroke-linejoin="round">
    <path d="M4 7h16M9 7V5a1 1 0 0 1 1-1h4a1 1 0 0 1 1 1v2m1 0-.6 12.2a2 2 0 0 1-2 1.8H9.6a2 2 0 0 1-2-1.8L7 7"/>
    <path d="M10 11v6M14 11v6"/>
  </symbol>

  <!-- Trust bar -->
  <symbol id="icon-truck" viewBox="0 0 24 24" fill="none" stroke="currentColor" stroke-width="1.75" stroke-linecap="round" stroke-linejoin="round">
    <path d="M2 7h11v8H2z"/>
    <path d="M13 10h4.2L20 13v2h-7z"/>
    <circle cx="6.5" cy="18" r="1.6"/>
    <circle cx="16.5" cy="18" r="1.6"/>
  </symbol>

  <symbol id="icon-shield" viewBox="0 0 24 24" fill="none" stroke="currentColor" stroke-width="1.75" stroke-linecap="round" stroke-linejoin="round">
    <path d="M12 3l7 3v5.2c0 4.7-3.2 7.7-7 9-3.8-1.3-7-4.3-7-9V6z"/>
    <path d="M9 12l2.2 2.2L15.5 10"/>
  </symbol>

  <symbol id="icon-refresh" viewBox="0 0 24 24" fill="none" stroke="currentColor" stroke-width="1.75" stroke-linecap="round" stroke-linejoin="round">
    <path d="M3 11a9 9 0 0 1 15-6.4L21 7.5"/>
    <path d="M21 4v5h-5"/>
    <path d="M21 13a9 9 0 0 1-15 6.4L3 16.5"/>
    <path d="M3 20v-5h5"/>
  </symbol>

  <symbol id="icon-headset" viewBox="0 0 24 24" fill="none" stroke="currentColor" stroke-width="1.75" stroke-linecap="round" stroke-linejoin="round">
    <path d="M4 14v-2a8 8 0 0 1 16 0v2"/>
    <rect x="2.2" y="14" width="4" height="6" rx="1.6"/>
    <rect x="17.8" y="14" width="4" height="6" rx="1.6"/>
    <path d="M19.8 20v.5a3 3 0 0 1-3 3h-3.3"/>
  </symbol>

  <!-- Categories -->
  <symbol id="icon-gamepad" viewBox="0 0 24 24" fill="none" stroke="currentColor" stroke-width="1.75" stroke-linecap="round" stroke-linejoin="round">
    <rect x="2" y="7" width="20" height="11" rx="4.5"/>
    <path d="M7 10v4M5 12h4"/>
    <circle cx="16" cy="10.5" r="1" fill="currentColor" stroke="none"/>
    <circle cx="18.5" cy="13" r="1" fill="currentColor" stroke="none"/>
  </symbol>

  <symbol id="icon-laptop" viewBox="0 0 24 24" fill="none" stroke="currentColor" stroke-width="1.75" stroke-linecap="round" stroke-linejoin="round">
    <rect x="3.5" y="4.5" width="17" height="11" rx="1.5"/>
    <path d="M2 18.5h20"/>
  </symbol>

  <symbol id="icon-headphones" viewBox="0 0 24 24" fill="none" stroke="currentColor" stroke-width="1.75" stroke-linecap="round" stroke-linejoin="round">
    <path d="M4 14v-2a8 8 0 0 1 16 0v2"/>
    <rect x="2.2" y="14" width="4" height="6" rx="1.6"/>
    <rect x="17.8" y="14" width="4" height="6" rx="1.6"/>
  </symbol>

  <symbol id="icon-watch" viewBox="0 0 24 24" fill="none" stroke="currentColor" stroke-width="1.75" stroke-linecap="round" stroke-linejoin="round">
    <circle cx="12" cy="12" r="5.5"/>
    <path d="M12 9v3l2 1.2"/>
    <path d="M9 3.5h6M9 20.5h6"/>
  </symbol>

  <symbol id="icon-chip" viewBox="0 0 24 24" fill="none" stroke="currentColor" stroke-width="1.75" stroke-linecap="round" stroke-linejoin="round">
    <rect x="6" y="6" width="12" height="12" rx="2"/>
    <rect x="9.5" y="9.5" width="5" height="5" rx="1"/>
    <path d="M6 3v3M12 3v3M18 3v3M6 18v3M12 18v3M18 18v3M3 6h3M3 12h3M3 18h3M18 6h3M18 12h3M18 18h3"/>
  </symbol>

  <symbol id="icon-monitor" viewBox="0 0 24 24" fill="none" stroke="currentColor" stroke-width="1.75" stroke-linecap="round" stroke-linejoin="round">
    <rect x="2.5" y="4" width="19" height="12" rx="1.5"/>
    <path d="M8 20h8M12 16v4"/>
  </symbol>

  <symbol id="icon-store" viewBox="0 0 24 24" fill="none" stroke="currentColor" stroke-width="1.75" stroke-linecap="round" stroke-linejoin="round">
    <path d="M3 9.5l1.2-5h15.6l1.2 5"/>
    <path d="M3 9.5a2.5 2.5 0 0 0 5 0 2.5 2.5 0 0 0 5 0 2.5 2.5 0 0 0 5 0 2.5 2.5 0 0 0 5 0"/>
    <path d="M5 9.8V20h14V9.8"/>
    <path d="M9.5 20v-5a1 1 0 0 1 1-1h3a1 1 0 0 1 1 1v5"/>
  </symbol>

  <!-- Social -->
  <symbol id="icon-twitch" viewBox="0 0 24 24" fill="none" stroke="currentColor" stroke-width="1.75" stroke-linecap="round" stroke-linejoin="round">
    <path d="M5 3.5h15v9.5l-4 4h-4l-2.5 2.5H7v-2.5H4V6.5z"/>
    <path d="M14 7.5v4M10 7.5v4"/>
  </symbol>

  <symbol id="icon-instagram" viewBox="0 0 24 24" fill="none" stroke="currentColor" stroke-width="1.75" stroke-linecap="round" stroke-linejoin="round">
    <rect x="3" y="3" width="18" height="18" rx="5"/>
    <circle cx="12" cy="12" r="4"/>
    <circle cx="17.3" cy="6.7" r="1" fill="currentColor" stroke="none"/>
  </symbol>

  <symbol id="icon-x" viewBox="0 0 24 24" fill="none" stroke="currentColor" stroke-width="1.75" stroke-linecap="round" stroke-linejoin="round">
    <path d="M4.5 4.5l15 15M19.5 4.5l-15 15"/>
  </symbol>

  <symbol id="icon-discord" viewBox="0 0 24 24" fill="none" stroke="currentColor" stroke-width="1.75" stroke-linecap="round" stroke-linejoin="round">
    <path d="M7.5 6.5C9 5.7 10.5 5.4 12 5.4s3 .3 4.5 1.1l1.5 11-3 1-1-1.7c-1.3.4-2.7.4-4 0L9 17.5l-3-1z"/>
    <circle cx="9.5" cy="12.5" r="1" fill="currentColor" stroke="none"/>
    <circle cx="14.5" cy="12.5" r="1" fill="currentColor" stroke="none"/>
  </symbol>
</svg>
